HIERARCHY
ROOT Hips
{
    OFFSET 0.000000 0.000000 0.000000
    CHANNELS 6 Xposition Yposition Zposition Zrotation Xrotation Yrotation
    JOINT Spine
    {
        OFFSET -0.000000 7.856138 0.000000
        CHANNELS 3 Zrotation Xrotation Yrotation
        JOINT Spine1
        {
            OFFSET -0.000000 20.830866 0.000000
            CHANNELS 3 Zrotation Xrotation Yrotation
            JOINT Neck
            {
                OFFSET -0.000000 20.745317 1.885938
                CHANNELS 3 Zrotation Xrotation Yrotation
                JOINT Head
                {
                    OFFSET -0.000000 13.412918 -1.916131
                    CHANNELS 3 Zrotation Xrotation Yrotation
                    End Site
                    {
                        OFFSET -0.000000 23.951641 0.000000
                    }
                }
            }
            JOINT LeftShoulder
            {
                OFFSET 3.826675 19.078362 -0.073511
                CHANNELS 3 Zrotation Xrotation Yrotation
                JOINT LeftArm
                {
                    OFFSET 10.442133 0.000000 0.000000
                    CHANNELS 3 Zrotation Xrotation Yrotation
                    JOINT LeftForeArm
                    {
                        OFFSET 37.051945 0.000000 0.000000
                        CHANNELS 3 Zrotation Xrotation Yrotation
                        JOINT LeftHand
                        {
                            OFFSET 24.394852 0.000000 0.000000
                            CHANNELS 3 Zrotation Xrotation Yrotation
                            End Site
                            {
                                OFFSET 14.370985 0.000000 0.000000
                            }
                        }
                    }
                }
            }
            JOINT RightShoulder
            {
                OFFSET -3.827599 19.078362 -0.073511
                CHANNELS 3 Zrotation Xrotation Yrotation
                JOINT RightArm
                {
                    OFFSET -10.442133 0.000000 0.000000
                    CHANNELS 3 Zrotation Xrotation Yrotation
                    JOINT RightForeArm
                    {
                        OFFSET -37.051945 0.000000 0.000000
                        CHANNELS 3 Zrotation Xrotation Yrotation
                        JOINT RightHand
                        {
                            OFFSET -24.394852 0.000000 0.000000
                            CHANNELS 3 Zrotation Xrotation Yrotation
                            End Site
                            {
                                OFFSET -14.370985 0.000000 0.000000
                            }
                        }
                    }
                }
            }
        }
    }
    JOINT LeftUpLeg
    {
        OFFSET 9.580656 0.000000 0.000000
        CHANNELS 3 Zrotation Xrotation Yrotation
        JOINT LeftLeg
        {
            OFFSET -0.000000 -43.769192 0.000000
            CHANNELS 3 Zrotation Xrotation Yrotation
            JOINT LeftFoot
            {
                OFFSET -0.000000 -42.531967 0.000000
                CHANNELS 3 Zrotation Xrotation Yrotation
                JOINT LeftToeBase
                {
                    OFFSET -0.000000 -6.227426 14.370985
                    CHANNELS 3 Zrotation Xrotation Yrotation
                    End Site
                    {
                        OFFSET -0.000000 0.000000 3.832262
                    }
                }
            }
        }
    }
    JOINT RightUpLeg
    {
        OFFSET -9.580656 0.000000 0.000000
        CHANNELS 3 Zrotation Xrotation Yrotation
        JOINT RightLeg
        {
            OFFSET -0.000000 -43.769192 0.000000
            CHANNELS 3 Zrotation Xrotation Yrotation
            JOINT RightFoot
            {
                OFFSET -0.000000 -42.531967 0.000000
                CHANNELS 3 Zrotation Xrotation Yrotation
                JOINT RightToeBase
                {
                    OFFSET -0.000000 -6.227426 14.370985
                    CHANNELS 3 Zrotation Xrotation Yrotation
                    End Site
                    {
                        OFFSET -0.000000 0.000000 3.832262
                    }
                }
            }
        }
    }
}
MOTION
Frames:    12
Frame Time:    0.008333
35.440853    104.355453    40.334866    -154.058746    0.479548    96.532829    8.326138    5.895663    -1.764424    -21.359278    -19.835911    -5.112230    21.424751    -17.515787    -0.100705    -0.743796    -19.201492    -6.872183    43.398407    -23.237247    -2.448173    -12.763690    -22.598969    -57.314278    21.610300    -13.972185    -15.842400    86.250137    14.984504    27.011438    6.881175    -17.615879    16.655018    -6.213008    -11.944090    41.785664    -13.882443    -15.653506    17.986465    -83.392822    1.419905    -16.693991    -4.894400    17.088694    9.463132    -2.128023    3.848228    18.272127    -8.424484    41.023125    6.498215    0.000000    0.000000    0.000000    -14.552950    -20.383097    -5.329596    8.884878    27.418249    -22.098753    15.687661    36.130127    -4.332588    0.000000    0.000000    0.000000    
35.892357    104.631615    40.264851    -154.765991    0.613180    96.098076    8.298503    5.943968    -1.501852    -21.257080    -20.212870    -4.901979    21.237223    -17.743525    -0.136559    -0.764994    -19.055214    -6.899028    43.228573    -23.344099    -2.409249    -12.617799    -22.797449    -57.146141    21.470398    -14.096786    -15.640858    86.410149    14.825390    26.960608    6.546389    -17.834267    16.716982    -6.446015    -11.871702    41.626057    -14.129738    -15.679911    17.943232    -83.576019    1.614250    -16.843012    -5.066722    17.042002    9.089365    -1.885526    3.413026    17.687576    -8.402927    40.857399    6.806159    0.000000    0.000000    0.000000    -14.167518    -18.613409    -5.433689    8.198395    25.968781    -21.493967    16.006310    36.258503    -4.769395    0.000000    0.000000    0.000000    
36.365204    104.925728    40.184841    -155.688385    0.729410    95.691078    8.328948    5.780528    -1.262559    -21.228819    -20.622120    -4.746850    21.236786    -17.653360    0.033376    -0.929056    -19.264805    -6.756635    43.110435    -23.353296    -2.272172    -12.135878    -22.817625    -56.902515    21.372450    -14.396427    -15.230059    86.550652    14.608641    27.066515    6.306773    -18.087790    16.943487    -6.249391    -12.280988    41.575191    -14.059269    -15.519014    17.845989    -83.106438    1.321858    -16.507332    -5.224880    16.958471    8.277533    -1.788151    2.556325    18.085808    -8.106690    40.910435    6.775202    0.000000    0.000000    0.000000    -13.845870    -17.017061    -5.254670    7.613887    24.525768    -21.143772    16.413151    36.424427    -5.172610    0.000000    0.000000    0.000000    
36.771923    105.187431    40.118671    -156.376495    0.747696    95.290184    8.452393    5.782310    -1.032052    -21.219906    -21.014999    -4.584362    21.329943    -17.728163    0.220988    -1.148418    -19.228540    -6.671220    43.098404    -23.381468    -2.148780    -11.659700    -22.707472    -56.711807    21.411007    -14.762637    -14.603094    86.644310    14.274404    27.165054    6.180383    -18.279755    17.186712    -6.123277    -12.689967    41.463013    -14.031805    -15.362547    17.834347    -82.623558    1.039655    -16.164984    -5.273942    17.121902    7.815018    -1.684301    1.674521    18.290291    -8.164545    40.914482    7.017372    0.000000    0.000000    0.000000    -13.427803    -15.202516    -5.134729    6.995558    22.904606    -20.690245    16.211279    36.567726    -5.085902    0.000000    0.000000    0.000000    
37.179905    105.429504    40.061481    -157.100769    0.773116    94.907806    8.580613    5.717442    -0.782231    -21.278744    -21.341152    -4.407500    21.373188    -18.136686    0.379041    -1.269522    -18.775957    -6.629363    43.149151    -23.489513    -1.989427    -11.062039    -22.393549    -56.420971    21.559099    -15.103738    -14.091574    86.639221    14.109046    27.415810    6.054245    -18.537771    17.378078    -5.946889    -13.085338    41.387039    -14.049435    -15.198924    17.733263    -82.344215    0.792412    -15.794267    -5.349343    17.302774    7.306451    -1.556506    0.658210    18.926142    -9.181211    40.871208    7.843611    0.000000    0.000000    0.000000    -12.993999    -13.392665    -4.562044    6.428119    21.135294    -20.566374    17.492350    36.948555    -6.212752    0.000000    0.000000    0.000000    
37.550575    105.660439    40.025551    -157.816330    0.747659    94.463753    8.779756    5.554417    -0.501308    -21.425844    -21.547981    -4.198678    21.504131    -18.512730    0.589243    -1.428015    -18.470364    -6.567580    43.232544    -23.646732    -1.919568    -10.579971    -22.278315    -56.205647    21.542625    -15.421359    -13.448919    86.769829    13.757850    27.444153    5.967753    -18.837137    17.565727    -5.689038    -13.482746    41.356991    -14.014318    -15.087193    17.591803    -82.125320    0.535105    -15.466199    -5.414422    17.567501    7.077024    -1.343833    -0.450909    19.595194    -10.764378    40.630272    8.859829    0.000000    0.000000    0.000000    -12.489068    -11.576853    -4.573047    5.616765    19.375998    -19.675936    18.383917    37.329082    -7.196880    0.000000    0.000000    0.000000    
37.906914    105.871628    39.992214    -158.529221    0.744430    94.088005    8.963063    5.435338    -0.276541    -21.595428    -21.908962    -4.078039    21.368095    -18.867649    0.662462    -1.246834    -18.080160    -6.456552    43.197437    -23.569651    -1.936122    -10.314212    -22.455360    -56.040043    21.491505    -15.575585    -13.166649    86.831200    13.576890    27.448318    5.924100    -19.140684    17.723095    -5.444472    -13.654508    41.411495    -14.053300    -15.244613    17.536491    -82.096107    0.191309    -15.274033    -5.490438    17.769396    7.105275    -1.176313    -1.362045    20.229750    -11.897253    40.217690    9.365792    0.000000    0.000000    0.000000    -11.987368    -9.843625    -4.563027    4.737407    17.636885    -19.037548    18.449263    37.816978    -7.403164    0.000000    0.000000    0.000000    
38.266190    106.064186    39.977104    -159.219635    0.806629    93.705513    9.043731    5.377760    -0.060072    -21.756598    -22.270365    -3.966853    21.632315    -19.284618    0.904942    -1.580920    -17.711884    -6.463032    43.257107    -23.519358    -1.900472    -10.394943    -22.916399    -56.026695    21.189329    -15.613526    -12.952022    87.039970    13.306911    27.200172    5.821759    -19.449306    17.812452    -5.040339    -14.076272    41.606125    -13.877346    -14.938428    17.323879    -82.113495    0.298835    -15.096341    -5.626309    17.941574    7.299210    -1.014140    -2.171993    21.076841    -13.078111    39.789860    9.736642    0.000000    0.000000    0.000000    -11.572090    -8.047808    -4.117314    4.113570    15.896605    -18.154381    18.719351    37.721508    -8.261230    0.000000    0.000000    0.000000    
38.609417    106.256828    39.973000    -159.959686    0.837461    93.408897    9.134379    5.268079    0.099950    -21.886154    -22.668451    -3.917791    21.680639    -19.498940    1.020181    -1.680463    -17.655083    -6.428178    43.383572    -23.587105    -1.827453    -10.434414    -23.091022    -55.809910    20.993689    -15.671703    -12.957761    87.218956    13.200835    27.093294    5.598646    -19.632479    17.958817    -4.842484    -14.382383    41.647972    -13.680726    -14.948510    17.108816    -82.329224    0.226968    -15.034602    -5.691106    17.952295    7.632329    -0.889996    -2.812063    21.372597    -13.573759    39.379196    9.793704    0.000000    0.000000    0.000000    -11.151058    -6.489338    -3.320303    3.529593    14.397329    -17.562393    18.738916    37.845184    -8.873612    0.000000    0.000000    0.000000    
38.948334    106.438278    39.991241    -160.655518    0.885074    93.087204    9.209582    5.218858    0.261908    -22.122612    -23.033504    -3.879632    21.792414    -19.674131    1.156677    -1.725278    -17.690105    -6.370312    43.681717    -23.720240    -1.682867    -10.602589    -23.277302    -55.663353    20.836180    -15.704306    -12.965274    87.348183    13.093666    26.979023    5.386377    -19.923384    17.991131    -4.596084    -14.586269    41.652775    -13.471613    -14.967673    17.060425    -82.592346    0.266692    -15.073318    -5.758679    18.009830    7.713145    -0.744888    -3.364439    21.088070    -14.501206    38.790485    10.495100    0.000000    0.000000    0.000000    -10.761661    -4.870616    -2.568845    3.015246    12.763260    -17.413340    17.330420    38.002201    -8.205659    0.000000    0.000000    0.000000    
39.302647    106.610809    40.001888    -161.378891    1.026100    92.855278    9.223388    5.194189    0.341450    -22.470261    -23.496111    -3.970455    21.927473    -19.601202    1.269022    -1.673337    -17.943270    -6.272592    43.921764    -23.671476    -1.657943    -10.361036    -23.389944    -55.317051    20.860079    -15.825305    -12.919605    87.331963    13.012444    27.031488    5.285048    -20.018242    18.102217    -4.649546    -14.694170    41.492371    -13.253743    -15.107297    17.149265    -82.981026    0.414438    -15.316786    -5.882483    17.956850    7.897392    -0.726500    -3.804230    21.181154    -13.966290    38.506496    9.990479    0.000000    0.000000    0.000000    -10.491769    -3.464554    -1.896557    2.495551    11.617643    -16.596996    17.033958    38.040871    -8.820063    0.000000    0.000000    0.000000    
39.659245    106.783035    40.023335    -162.070084    1.205684    92.641556    9.180614    5.212826    0.350156    -22.785677    -24.025187    -4.141442    22.464817    -19.510017    1.582470    -2.125982    -18.014196    -6.240891    43.958511    -23.395163    -1.743463    -9.970610    -23.665586    -55.054520    21.056366    -15.951205    -12.604187    87.245743    12.718226    26.944298    5.282675    -20.112978    18.249428    -4.835637    -14.570209    41.371723    -13.185427    -15.146834    17.177082    -82.859314    0.604564    -15.610450    -6.020028    17.927172    7.987071    -0.676041    -4.115370    21.138905    -14.323196    38.116745    10.170948    0.000000    0.000000    0.000000    -10.311937    -2.057323    -0.900143    2.188744    10.523252    -16.258169    16.771559    37.960896    -9.383143    0.000000    0.000000    0.000000    
